<?xml version="1.0" encoding="UTF-8"?>
<svg id="Layer_2" data-name="Layer 2" xmlns="http://www.w3.org/2000/svg" viewBox="0 0 213.85 205.65">
  <defs>
    <style>
      .cls-1 {
        fill: #c2daf1;
      }
    </style>
  </defs>
  <g id="Layer_1-2" data-name="Layer 1">
    <path class="cls-1" d="m93.74.08c-19.61,4.77-38.06,14.04-53.58,26.94S12.51,56.35,5.67,75.19c-6.54,18.01-7.3,37.97-2.91,56.57s13.95,35.69,28.3,48.04c17.69,15.22,41.26,21.68,64.06,24.03s48.03-.37,69.44-10.89c18.13-8.91,33.79-23.95,42.31-42.38,4.36-9.43,6.83-19.62,6.97-30.03s-2.08-21.31-6.03-31.18c-8.26-20.64-23.19-37.76-41.1-50.68-19.06-13.76-40.96-22.93-62.88-31.07-5.29-1.97-10.61-3.88-15.93-5.78-1.27-.46-2.74.51-3.08,1.75-.38,1.39.47,2.62,1.75,3.08,21.41,7.68,42.97,15.43,62.76,26.81,18.7,10.75,35.44,24.87,46.7,43.47,10.49,17.32,15.8,38.12,11,58.15-4.52,18.87-17.01,35.3-32.78,46.34-18.13,12.7-40.34,18.08-62.27,18.26-11.41.09-22.83-1.14-33.99-3.55s-22.3-6.13-32.27-11.95c-15.93-9.3-27.81-24.23-34.36-41.39s-8.15-35.66-4.51-53.39c3.82-18.6,13.55-35.61,26.61-49.28,13.31-13.94,30.03-24.62,48.15-31.15,4.4-1.59,8.89-2.93,13.44-4.04,3.13-.76,1.8-5.58-1.33-4.82h0Z"/>
    <path class="cls-1" d="m88.16,9.56c.04,25.24.37,50.48,1,75.72s1.54,50.3,2.75,75.43c.68,14.18,1.46,28.36,2.33,42.53.2,3.2,5.2,3.22,5,0-1.54-25.2-2.79-50.41-3.75-75.63-.95-25.14-1.61-50.29-1.98-75.45-.21-14.2-.32-28.4-.35-42.59,0-3.22-5.01-3.22-5,0h0Z"/>
    <path class="cls-1" d="m24.27,42.9c15.42,14.21,33.79,25.07,53.69,31.7,10.68,3.55,22.03,6.16,33.35,5.68,10.65-.45,20.66-4,29.68-9.6,9.73-6.04,18.17-13.93,26.45-21.78,2.34-2.22-1.2-5.75-3.54-3.54-13.74,13.04-29.1,27.5-48.84,29.64-11.01,1.19-22.04-.97-32.53-4.19-9.54-2.93-18.74-6.86-27.45-11.72-9.83-5.48-18.99-12.09-27.27-19.72-2.36-2.18-5.91,1.35-3.54,3.54h0Z"/>
    <path class="cls-1" d="m34,176.4c2.95-4.64,7.59-7.79,12.15-10.7,4.96-3.16,10.04-6.12,15.26-8.84,10.48-5.46,21.49-9.92,32.91-12.98,21.47-5.74,44.27-6.11,65.49.91,11.38,3.76,22.07,9.67,31.02,17.67,2.39,2.14,5.94-1.39,3.54-3.54-17-15.19-39.37-23.05-61.96-24.27-24.27-1.31-48.36,5.4-69.98,16.09-6.19,3.06-12.22,6.47-18.06,10.16s-11.1,7.31-14.68,12.96c-1.73,2.73,2.6,5.24,4.32,2.52h0Z"/>
    <path class="cls-1" d="m210.76,111.54c-26.9.98-53.83,1.23-80.75.76s-53.66-1.66-80.43-3.57c-15.07-1.07-30.13-2.38-45.17-3.91-1.35-.14-2.5,1.25-2.5,2.5,0,1.47,1.15,2.36,2.5,2.5,26.78,2.72,53.64,4.73,80.53,6.01s53.65,1.83,80.49,1.67c15.11-.09,30.22-.42,45.32-.96,3.21-.12,3.22-5.12,0-5h0Z"/>
  </g>
</svg>